<?xml version="1.0" encoding="utf-8"?>
<!-- Generator: Adobe Illustrator 16.0.0, SVG Export Plug-In . SVG Version: 6.00 Build 0)  -->
<!DOCTYPE svg PUBLIC "-//W3C//DTD SVG 1.1//EN" "http://www.w3.org/Graphics/SVG/1.1/DTD/svg11.dtd">
<svg version="1.1" id="Layer_1" xmlns="http://www.w3.org/2000/svg" xmlns:xlink="http://www.w3.org/1999/xlink" x="0px" y="0px"
	 width="750px" height="500px" viewBox="0 0 750 500" enable-background="new 0 0 750 500" xml:space="preserve">
<g id="BACKGROUND">
	<g>
		<g>
			<g>
				
					<linearGradient id="SVGID_1_" gradientUnits="userSpaceOnUse" x1="211.9844" y1="-62.9248" x2="514.9693" y2="520.5452" gradientTransform="matrix(1 0 0 -1 0 501)">
					<stop  offset="0" style="stop-color:#243F83"/>
					<stop  offset="0.1601" style="stop-color:#244388"/>
					<stop  offset="0.3457" style="stop-color:#244D96"/>
					<stop  offset="0.544" style="stop-color:#245FAD"/>
					<stop  offset="0.7512" style="stop-color:#2378CE"/>
					<stop  offset="0.9634" style="stop-color:#2398F7"/>
					<stop  offset="1" style="stop-color:#239EFF"/>
				</linearGradient>
				<rect fill="url(#SVGID_1_)" width="750" height="500"/>
			</g>
		</g>
	</g>
</g>
<g id="OBJECTS">
	<g>
		<g>
			
				<image overflow="visible" opacity="0.6" enable-background="new    " width="630" height="432" xlink:href="DF01B7C.png"  transform="matrix(1 0 0 1 60 39.9995)">
			</image>
			<g>
				<rect x="78" y="52" fill="#FFFFFF" width="594" height="396"/>
			</g>
		</g>
		<g>
			<g>
				
					<linearGradient id="SVGID_2_" gradientUnits="userSpaceOnUse" x1="153.0195" y1="22.3149" x2="599.9971" y2="482.7924" gradientTransform="matrix(1 0 0 -1 0 501)">
					<stop  offset="0" style="stop-color:#1A6BE4"/>
					<stop  offset="0.2485" style="stop-color:#30A1F1"/>
					<stop  offset="0.551" style="stop-color:#49DEFF"/>
					<stop  offset="0.7123" style="stop-color:#3DC7FF"/>
					<stop  offset="0.8653" style="stop-color:#36BAFF"/>
					<stop  offset="1" style="stop-color:#34B5FF"/>
				</linearGradient>
				<rect x="78" y="52" fill="url(#SVGID_2_)" width="594" height="396"/>
				<g>
					<g>
						<defs>
							<rect id="SVGID_3_" x="78" y="52" width="594" height="396"/>
						</defs>
						<clipPath id="SVGID_4_">
							<use xlink:href="#SVGID_3_"  overflow="visible"/>
						</clipPath>
						<g clip-path="url(#SVGID_4_)">
							<g>
								
									<radialGradient id="SVGID_5_" cx="740.9473" cy="1008.4463" r="175.6962" gradientTransform="matrix(0.8716 -0.3291 -0.1254 -0.3321 59.2002 896.4539)" gradientUnits="userSpaceOnUse">
									<stop  offset="0" style="stop-color:#3489D9"/>
									<stop  offset="1" style="stop-color:#FFFFFF;stop-opacity:0"/>
								</radialGradient>
								<path fill="url(#SVGID_5_)" d="M423.942,376.086c12.346,32.695,91.574,33.063,176.962,0.818
									c85.388-32.243,144.6-84.887,132.253-117.582c-12.347-32.696-91.575-33.063-176.963-0.819
									C470.808,290.746,411.596,343.391,423.942,376.086z"/>
								
									<radialGradient id="SVGID_6_" cx="515.4043" cy="1123.543" r="175.6978" gradientTransform="matrix(0.875 -0.1892 -0.0515 -0.2379 111.0381 711.0521)" gradientUnits="userSpaceOnUse">
									<stop  offset="0" style="stop-color:#3489D9"/>
									<stop  offset="1" style="stop-color:#FFFFFF;stop-opacity:0"/>
								</radialGradient>
								<path fill="url(#SVGID_6_)" d="M348.938,379.807c5.063,23.419,78.66,27.381,164.385,8.846
									c85.725-18.533,151.111-52.543,146.049-75.963c-5.063-23.42-78.661-27.381-164.385-8.848
									C409.262,322.376,343.873,356.386,348.938,379.807z"/>
								
									<radialGradient id="SVGID_7_" cx="1047.2686" cy="1069.3613" r="140.9447" gradientTransform="matrix(0.7887 -0.9095 -0.4451 -0.386 -32.2208 1778.2456)" gradientUnits="userSpaceOnUse">
									<stop  offset="0" style="stop-color:#3489D9"/>
									<stop  offset="1" style="stop-color:#FFFFFF;stop-opacity:0"/>
								</radialGradient>
								<path fill="url(#SVGID_7_)" d="M205.6,542.355c35.137,30.47,113.849-2.754,175.809-74.204
									c61.959-71.45,83.703-154.073,48.564-184.544c-35.137-30.47-113.849,2.754-175.809,74.205
									C192.205,429.263,170.463,511.886,205.6,542.355z"/>
								
									<radialGradient id="SVGID_8_" cx="1255.4395" cy="1209.5117" r="170.1179" gradientTransform="matrix(0.2659 -0.5458 -0.4473 -0.2179 713.7593 1396.7715)" gradientUnits="userSpaceOnUse">
									<stop  offset="0" style="stop-color:#3489D9"/>
									<stop  offset="1" style="stop-color:#FFFFFF;stop-opacity:0"/>
								</radialGradient>
								<path fill="url(#SVGID_8_)" d="M460.915,541.698c42.614,20.762,97.598-4.358,122.81-56.106s11.104-110.529-31.509-131.29
									c-42.614-20.762-97.598,4.358-122.81,56.106S418.302,520.938,460.915,541.698z"/>
								
									<radialGradient id="SVGID_9_" cx="-426.1733" cy="-122.1953" r="195.4547" gradientTransform="matrix(0.5092 0.1462 0.1168 -0.4069 848.2245 133.7814)" gradientUnits="userSpaceOnUse">
									<stop  offset="0" style="stop-color:#3489D9"/>
									<stop  offset="1" style="stop-color:#FFFFFF;stop-opacity:0"/>
								</radialGradient>
								<path fill="url(#SVGID_9_)" d="M516.479,92.354c-12.788,44.546,21.824,93.571,77.311,109.5s110.833-7.27,123.622-51.816
									s-21.824-93.571-77.312-109.5C584.614,24.609,529.267,47.808,516.479,92.354z"/>
								
									<radialGradient id="SVGID_10_" cx="315.3906" cy="-893.584" r="195.3952" gradientTransform="matrix(0.7103 0.5943 0.3227 -0.3856 361.0009 -382.8014)" gradientUnits="userSpaceOnUse">
									<stop  offset="0" style="stop-color:#3489D9"/>
									<stop  offset="1" style="stop-color:#FFFFFF;stop-opacity:0"/>
								</radialGradient>
								<path fill="url(#SVGID_10_)" d="M156.542,31.946c-35.329,42.218-1.234,128.94,76.153,193.698
									c77.387,64.758,168.761,83.031,204.09,40.813s1.233-128.94-76.153-193.698C283.246,8,191.872-10.272,156.542,31.946z"/>
							</g>
							<g>
								<path fill="#FFFFFF" d="M579.299,111.972c24.464,27.521,82.008,24.463,92.701,14.178V52H570.048
									C570.044,52.536,554.574,84.157,579.299,111.972z"/>
								<path fill="#FFFFFF" d="M512.17,383.578c-22.997,15.75-25.126,49.041-17.034,64.422H672V334.584
									C625.449,402.078,567.436,345.729,512.17,383.578z"/>
								<path fill="#FFFFFF" d="M408.647,377.59c40.529-18.679,91.878-21.236,117.304-25.012
									c100.771-14.967,122.856-58.426,129.227-89.667c8.495-41.667-7.083-76-58-113.711c-54.55-40.403-61.867-74.622-51.867-97.2
									h-370.74c21.618,71.343,150.906,72.014,231.941,142.245c50,43.333,45.985,179.245-129.051,175.333
									C145.89,366.639,97.893,448,97.893,448h231.192C332.481,429.666,360.167,399.933,408.647,377.59z"/>
							</g>
						</g>
					</g>
				</g>
				<g>
					
						<image overflow="visible" opacity="0.5" enable-background="new    " width="351" height="249" xlink:href="DF01B7D.png"  transform="matrix(1 0 0 1 100 127)">
					</image>
					<g>
						<g>
							<g>
								<g>
									<g>
										
											<linearGradient id="SVGID_11_" gradientUnits="userSpaceOnUse" x1="156.708" y1="283.373" x2="393.6162" y2="283.373" gradientTransform="matrix(1 0 0 -1 0 501)">
											<stop  offset="0" style="stop-color:#C9C9C9"/>
											<stop  offset="0.0046" style="stop-color:#C9C9C9"/>
											<stop  offset="0.3418" style="stop-color:#E8E8E8"/>
											<stop  offset="0.5305" style="stop-color:#F4F4F4"/>
											<stop  offset="0.6683" style="stop-color:#EFEFEF"/>
											<stop  offset="0.8224" style="stop-color:#E2E2E2"/>
											<stop  offset="0.984" style="stop-color:#CCCCCB"/>
											<stop  offset="1" style="stop-color:#C9C9C9"/>
										</linearGradient>
										<path fill="url(#SVGID_11_)" d="M386.814,295.551H163.509c-3.756,0-6.801-3.045-6.801-6.802V146.504
											c0-3.756,3.045-6.801,6.801-6.801h223.306c3.757,0,6.802,3.045,6.802,6.801v142.245
											C393.616,292.506,390.571,295.551,386.814,295.551z"/>
										<path d="M163.509,294.934c-3.409,0-6.183-2.774-6.183-6.185V146.504c0-3.409,2.774-6.183,6.183-6.183h223.307
											c3.408,0,6.183,2.773,6.183,6.183v142.245c0,3.409-2.773,6.185-6.183,6.185H163.509L163.509,294.934z"/>
									</g>
									
										<linearGradient id="SVGID_12_" gradientUnits="userSpaceOnUse" x1="333.6489" y1="354.3564" x2="205.0067" y2="204.0674" gradientTransform="matrix(1 0 0 -1 0 501)">
										<stop  offset="0" style="stop-color:#FFFFFF"/>
										<stop  offset="0.2883" style="stop-color:#FAFAFA"/>
										<stop  offset="0.6141" style="stop-color:#EDEDED"/>
										<stop  offset="0.9569" style="stop-color:#D6D6D6"/>
										<stop  offset="1" style="stop-color:#D3D3D3"/>
									</linearGradient>
									<rect x="164.05" y="149.202" fill="url(#SVGID_12_)" width="222.226" height="131.539"/>
									
										<linearGradient id="SVGID_13_" gradientUnits="userSpaceOnUse" x1="209.6016" y1="174.709" x2="340.7243" y2="305.8317" gradientTransform="matrix(1 0 0 -1 0 501)">
										<stop  offset="0" style="stop-color:#FFFFFF"/>
										<stop  offset="0.1053" style="stop-color:#FDFDFD"/>
										<stop  offset="0.1433" style="stop-color:#F6F6F6"/>
										<stop  offset="0.1702" style="stop-color:#EBEBEB"/>
										<stop  offset="0.1919" style="stop-color:#DADADA"/>
										<stop  offset="0.195" style="stop-color:#D7D7D7"/>
										<stop  offset="0.2452" style="stop-color:#DFDFDF"/>
										<stop  offset="0.3865" style="stop-color:#F1F1F1"/>
										<stop  offset="0.5367" style="stop-color:#FCFCFC"/>
										<stop  offset="0.7097" style="stop-color:#FFFFFF"/>
										<stop  offset="0.7408" style="stop-color:#F6F6F6"/>
										<stop  offset="0.8174" style="stop-color:#E5E5E4"/>
										<stop  offset="0.9003" style="stop-color:#DADADA"/>
										<stop  offset="1" style="stop-color:#D7D7D7"/>
									</linearGradient>
									<rect x="164.05" y="240.72" fill="url(#SVGID_13_)" width="222.226" height="40.021"/>
									
										<linearGradient id="SVGID_14_" gradientUnits="userSpaceOnUse" x1="209.9893" y1="228.8706" x2="373.7884" y2="275.6704" gradientTransform="matrix(1 0 0 -1 0 501)">
										<stop  offset="0" style="stop-color:#B3E2FF"/>
										<stop  offset="0.0083" style="stop-color:#C4E8FF"/>
										<stop  offset="0.0224" style="stop-color:#DAF1FF"/>
										<stop  offset="0.039" style="stop-color:#EBF7FF"/>
										<stop  offset="0.0595" style="stop-color:#F6FCFF"/>
										<stop  offset="0.0883" style="stop-color:#FDFEFF"/>
										<stop  offset="0.1683" style="stop-color:#FFFFFF"/>
										<stop  offset="0.2266" style="stop-color:#F6F8FF"/>
										<stop  offset="0.3207" style="stop-color:#DEE7FF"/>
										<stop  offset="0.4383" style="stop-color:#B8CAFF"/>
										<stop  offset="0.4754" style="stop-color:#AAC0FF"/>
										<stop  offset="0.4952" style="stop-color:#C4D3FF"/>
										<stop  offset="0.5181" style="stop-color:#DAE3FF"/>
										<stop  offset="0.5452" style="stop-color:#EBF0FF"/>
										<stop  offset="0.5786" style="stop-color:#F6F9FF"/>
										<stop  offset="0.6256" style="stop-color:#FDFEFF"/>
										<stop  offset="0.756" style="stop-color:#FFFFFF"/>
										<stop  offset="1" style="stop-color:#AAC0FF"/>
									</linearGradient>
									<path fill="url(#SVGID_14_)" d="M386.274,240.72H164.05v-4.386h222.226L386.274,240.72L386.274,240.72z M386.274,251.314
										H164.05v4.388h222.226L386.274,251.314L386.274,251.314z M386.274,266.297H164.05v4.387h222.226L386.274,266.297
										L386.274,266.297z"/>
									
										<linearGradient id="SVGID_15_" gradientUnits="userSpaceOnUse" x1="274.373" y1="354.8535" x2="275.9311" y2="357.58" gradientTransform="matrix(1 0 0 -1 0 501)">
										<stop  offset="0" style="stop-color:#000000"/>
										<stop  offset="0.2085" style="stop-color:#292929"/>
										<stop  offset="0.4542" style="stop-color:#535353"/>
										<stop  offset="0.6768" style="stop-color:#727171"/>
										<stop  offset="0.8663" style="stop-color:#848383"/>
										<stop  offset="1" style="stop-color:#8B8A8A"/>
									</linearGradient>
									<circle fill="url(#SVGID_15_)" cx="275.162" cy="144.766" r="1.546"/>
									<g>
										<g>
											
												<image overflow="visible" enable-background="new    " width="310" height="136" xlink:href="DF01B7B.png"  transform="matrix(1 0 0 1 120 113)">
											</image>
										</g>
										<g>
											
												<linearGradient id="SVGID_16_" gradientUnits="userSpaceOnUse" x1="165.3506" y1="309.627" x2="165.3506" y2="351.7979" gradientTransform="matrix(1 0 0 -1 0 501)">
												<stop  offset="0" style="stop-color:#34B5FF"/>
												<stop  offset="0.8381" style="stop-color:#1E77E9"/>
												<stop  offset="1" style="stop-color:#1A6BE4"/>
											</linearGradient>
											<polygon fill="url(#SVGID_16_)" points="171.565,191.373 141.951,191.373 164.05,149.202 188.75,149.202 											"/>
											
												<linearGradient id="SVGID_17_" gradientUnits="userSpaceOnUse" x1="192.5083" y1="309.627" x2="192.5083" y2="351.7979" gradientTransform="matrix(1 0 0 -1 0 501)">
												<stop  offset="0" style="stop-color:#FFFFFF"/>
												<stop  offset="0.5037" style="stop-color:#FDFDFE"/>
												<stop  offset="0.7127" style="stop-color:#F6F8FC"/>
												<stop  offset="0.8664" style="stop-color:#EAEEF8"/>
												<stop  offset="0.9932" style="stop-color:#D8E0F1"/>
												<stop  offset="1" style="stop-color:#D7DFF1"/>
											</linearGradient>
											<polygon fill="url(#SVGID_17_)" points="201.179,191.373 171.565,191.373 188.75,149.202 213.452,149.202 											"/>
											
												<linearGradient id="SVGID_18_" gradientUnits="userSpaceOnUse" x1="219.666" y1="309.627" x2="219.666" y2="351.7979" gradientTransform="matrix(1 0 0 -1 0 501)">
												<stop  offset="0" style="stop-color:#34B5FF"/>
												<stop  offset="0.8381" style="stop-color:#1E77E9"/>
												<stop  offset="1" style="stop-color:#1A6BE4"/>
											</linearGradient>
											<polygon fill="url(#SVGID_18_)" points="230.792,191.373 201.179,191.373 213.452,149.202 238.153,149.202 											
												"/>
											
												<linearGradient id="SVGID_19_" gradientUnits="userSpaceOnUse" x1="246.8228" y1="309.627" x2="246.8228" y2="351.7979" gradientTransform="matrix(1 0 0 -1 0 501)">
												<stop  offset="0" style="stop-color:#FFFFFF"/>
												<stop  offset="0.5037" style="stop-color:#FDFDFE"/>
												<stop  offset="0.7127" style="stop-color:#F6F8FC"/>
												<stop  offset="0.8664" style="stop-color:#EAEEF8"/>
												<stop  offset="0.9932" style="stop-color:#D8E0F1"/>
												<stop  offset="1" style="stop-color:#D7DFF1"/>
											</linearGradient>
											<polygon fill="url(#SVGID_19_)" points="260.406,191.373 230.792,191.373 238.153,149.202 262.854,149.202 											
												"/>
											
												<linearGradient id="SVGID_20_" gradientUnits="userSpaceOnUse" x1="275.2134" y1="309.627" x2="275.2134" y2="351.7979" gradientTransform="matrix(1 0 0 -1 0 501)">
												<stop  offset="0" style="stop-color:#34B5FF"/>
												<stop  offset="0.8381" style="stop-color:#1E77E9"/>
												<stop  offset="1" style="stop-color:#1A6BE4"/>
											</linearGradient>
											<polygon fill="url(#SVGID_20_)" points="290.02,191.373 260.406,191.373 262.854,149.202 287.555,149.202 											"/>
											
												<linearGradient id="SVGID_21_" gradientUnits="userSpaceOnUse" x1="303.5942" y1="309.627" x2="303.5942" y2="351.7979" gradientTransform="matrix(1 0 0 -1 0 501)">
												<stop  offset="0" style="stop-color:#FFFFFF"/>
												<stop  offset="0.5037" style="stop-color:#FDFDFE"/>
												<stop  offset="0.7127" style="stop-color:#F6F8FC"/>
												<stop  offset="0.8664" style="stop-color:#EAEEF8"/>
												<stop  offset="0.9932" style="stop-color:#D8E0F1"/>
												<stop  offset="1" style="stop-color:#D7DFF1"/>
											</linearGradient>
											<polygon fill="url(#SVGID_21_)" points="319.634,191.373 290.02,191.373 287.555,149.202 312.257,149.202 											"/>
											
												<linearGradient id="SVGID_22_" gradientUnits="userSpaceOnUse" x1="330.7524" y1="309.627" x2="330.7524" y2="351.7979" gradientTransform="matrix(1 0 0 -1 0 501)">
												<stop  offset="0" style="stop-color:#34B5FF"/>
												<stop  offset="0.8381" style="stop-color:#1E77E9"/>
												<stop  offset="1" style="stop-color:#1A6BE4"/>
											</linearGradient>
											<polygon fill="url(#SVGID_22_)" points="349.248,191.373 319.634,191.373 312.257,149.202 336.958,149.202 											
												"/>
											
												<linearGradient id="SVGID_23_" gradientUnits="userSpaceOnUse" x1="357.9097" y1="309.627" x2="357.9097" y2="351.7979" gradientTransform="matrix(1 0 0 -1 0 501)">
												<stop  offset="0" style="stop-color:#FFFFFF"/>
												<stop  offset="0.5037" style="stop-color:#FDFDFE"/>
												<stop  offset="0.7127" style="stop-color:#F6F8FC"/>
												<stop  offset="0.8664" style="stop-color:#EAEEF8"/>
												<stop  offset="0.9932" style="stop-color:#D8E0F1"/>
												<stop  offset="1" style="stop-color:#D7DFF1"/>
											</linearGradient>
											<polygon fill="url(#SVGID_23_)" points="378.861,191.373 349.248,191.373 336.958,149.202 361.659,149.202 											
												"/>
											
												<linearGradient id="SVGID_24_" gradientUnits="userSpaceOnUse" x1="384.9736" y1="309.627" x2="384.9736" y2="351.7979" gradientTransform="matrix(1 0 0 -1 0 501)">
												<stop  offset="0" style="stop-color:#34B5FF"/>
												<stop  offset="0.8381" style="stop-color:#1E77E9"/>
												<stop  offset="1" style="stop-color:#1A6BE4"/>
											</linearGradient>
											<polygon fill="url(#SVGID_24_)" points="408.373,191.373 378.76,191.373 361.574,149.202 386.274,149.202 											"/>
										</g>
										<g>
											
												<linearGradient id="SVGID_25_" gradientUnits="userSpaceOnUse" x1="156.833" y1="293.7363" x2="156.833" y2="309.627" gradientTransform="matrix(1 0 0 -1 0 501)">
												<stop  offset="0" style="stop-color:#34B5FF"/>
												<stop  offset="0.8381" style="stop-color:#1E77E9"/>
												<stop  offset="1" style="stop-color:#1A6BE4"/>
											</linearGradient>
											<path fill="url(#SVGID_25_)" d="M171.629,191.373c0,8.776-6.625,15.89-14.796,15.89s-14.796-7.114-14.796-15.89H171.629z
												"/>
											
												<linearGradient id="SVGID_26_" gradientUnits="userSpaceOnUse" x1="186.4263" y1="293.7363" x2="186.4263" y2="309.627" gradientTransform="matrix(1 0 0 -1 0 501)">
												<stop  offset="0" style="stop-color:#FFFFFF"/>
												<stop  offset="0.5037" style="stop-color:#FDFDFE"/>
												<stop  offset="0.7127" style="stop-color:#F6F8FC"/>
												<stop  offset="0.8664" style="stop-color:#EAEEF8"/>
												<stop  offset="0.9932" style="stop-color:#D8E0F1"/>
												<stop  offset="1" style="stop-color:#D7DFF1"/>
											</linearGradient>
											<path fill="url(#SVGID_26_)" d="M201.222,191.373c0,8.776-6.625,15.89-14.796,15.89c-8.171,0-14.796-7.114-14.796-15.89
												H201.222z"/>
											
												<linearGradient id="SVGID_27_" gradientUnits="userSpaceOnUse" x1="216.0186" y1="293.7363" x2="216.0186" y2="309.627" gradientTransform="matrix(1 0 0 -1 0 501)">
												<stop  offset="0" style="stop-color:#34B5FF"/>
												<stop  offset="0.8381" style="stop-color:#1E77E9"/>
												<stop  offset="1" style="stop-color:#1A6BE4"/>
											</linearGradient>
											<path fill="url(#SVGID_27_)" d="M230.815,191.373c0,8.776-6.625,15.89-14.796,15.89s-14.797-7.114-14.797-15.89H230.815z
												"/>
											
												<linearGradient id="SVGID_28_" gradientUnits="userSpaceOnUse" x1="245.6118" y1="293.7363" x2="245.6118" y2="309.627" gradientTransform="matrix(1 0 0 -1 0 501)">
												<stop  offset="0" style="stop-color:#FFFFFF"/>
												<stop  offset="0.5037" style="stop-color:#FDFDFE"/>
												<stop  offset="0.7127" style="stop-color:#F6F8FC"/>
												<stop  offset="0.8664" style="stop-color:#EAEEF8"/>
												<stop  offset="0.9932" style="stop-color:#D8E0F1"/>
												<stop  offset="1" style="stop-color:#D7DFF1"/>
											</linearGradient>
											<path fill="url(#SVGID_28_)" d="M260.408,191.373c0,8.776-6.625,15.89-14.796,15.89c-8.171,0-14.796-7.114-14.796-15.89
												H260.408z"/>
											
												<linearGradient id="SVGID_29_" gradientUnits="userSpaceOnUse" x1="275.2046" y1="293.7363" x2="275.2046" y2="309.627" gradientTransform="matrix(1 0 0 -1 0 501)">
												<stop  offset="0" style="stop-color:#34B5FF"/>
												<stop  offset="0.8381" style="stop-color:#1E77E9"/>
												<stop  offset="1" style="stop-color:#1A6BE4"/>
											</linearGradient>
											<path fill="url(#SVGID_29_)" d="M290.001,191.373c0,8.776-6.625,15.89-14.797,15.89c-8.171,0-14.796-7.114-14.796-15.89
												H290.001z"/>
											
												<linearGradient id="SVGID_30_" gradientUnits="userSpaceOnUse" x1="304.7979" y1="293.7363" x2="304.7979" y2="309.627" gradientTransform="matrix(1 0 0 -1 0 501)">
												<stop  offset="0" style="stop-color:#FFFFFF"/>
												<stop  offset="0.5037" style="stop-color:#FDFDFE"/>
												<stop  offset="0.7127" style="stop-color:#F6F8FC"/>
												<stop  offset="0.8664" style="stop-color:#EAEEF8"/>
												<stop  offset="0.9932" style="stop-color:#D8E0F1"/>
												<stop  offset="1" style="stop-color:#D7DFF1"/>
											</linearGradient>
											<path fill="url(#SVGID_30_)" d="M319.594,191.373c0,8.776-6.625,15.89-14.796,15.89s-14.796-7.114-14.796-15.89H319.594z
												"/>
											
												<linearGradient id="SVGID_31_" gradientUnits="userSpaceOnUse" x1="334.3911" y1="293.7363" x2="334.3911" y2="309.627" gradientTransform="matrix(1 0 0 -1 0 501)">
												<stop  offset="0" style="stop-color:#34B5FF"/>
												<stop  offset="0.8381" style="stop-color:#1E77E9"/>
												<stop  offset="1" style="stop-color:#1A6BE4"/>
											</linearGradient>
											<path fill="url(#SVGID_31_)" d="M349.188,191.373c0,8.776-6.625,15.89-14.797,15.89s-14.796-7.114-14.796-15.89H349.188z
												"/>
											
												<linearGradient id="SVGID_32_" gradientUnits="userSpaceOnUse" x1="363.9839" y1="293.7363" x2="363.9839" y2="309.627" gradientTransform="matrix(1 0 0 -1 0 501)">
												<stop  offset="0" style="stop-color:#FFFFFF"/>
												<stop  offset="0.5037" style="stop-color:#FDFDFE"/>
												<stop  offset="0.7127" style="stop-color:#F6F8FC"/>
												<stop  offset="0.8664" style="stop-color:#EAEEF8"/>
												<stop  offset="0.9932" style="stop-color:#D8E0F1"/>
												<stop  offset="1" style="stop-color:#D7DFF1"/>
											</linearGradient>
											<path fill="url(#SVGID_32_)" d="M378.78,191.373c0,8.776-6.625,15.89-14.796,15.89s-14.796-7.114-14.796-15.89H378.78z"
												/>
											
												<linearGradient id="SVGID_33_" gradientUnits="userSpaceOnUse" x1="393.5762" y1="293.7363" x2="393.5762" y2="309.627" gradientTransform="matrix(1 0 0 -1 0 501)">
												<stop  offset="0" style="stop-color:#34B5FF"/>
												<stop  offset="0.8381" style="stop-color:#1E77E9"/>
												<stop  offset="1" style="stop-color:#1A6BE4"/>
											</linearGradient>
											<path fill="url(#SVGID_33_)" d="M408.373,191.373c0,8.776-6.624,15.89-14.796,15.89s-14.797-7.114-14.797-15.89H408.373z
												"/>
										</g>
									</g>
									<g>
										<g>
											
												<image overflow="visible" enable-background="new    " width="124" height="112" xlink:href="DF01B84.png"  transform="matrix(1 0 0 1 214 181)">
											</image>
										</g>
										<g>
											<g>
												<path fill="#FFFFFF" d="M299.059,236.212l-41.385,3.695l18.761-23.475L299.059,236.212z M259.399,238.981l37.797-3.375
													l-20.663-18.064L259.399,238.981z"/>
											</g>
											
												<linearGradient id="SVGID_34_" gradientUnits="userSpaceOnUse" x1="315.5483" y1="353.8477" x2="315.5483" y2="370.5793" gradientTransform="matrix(0.996 -0.0889 -0.0889 -0.996 -3.6126 632.7269)">
												<stop  offset="0" style="stop-color:#FFFFFF"/>
												<stop  offset="0.303" style="stop-color:#FDFEFE"/>
												<stop  offset="0.4121" style="stop-color:#F6F9FA"/>
												<stop  offset="0.4898" style="stop-color:#EBF0F3"/>
												<stop  offset="0.5523" style="stop-color:#DAE3EA"/>
												<stop  offset="0.5712" style="stop-color:#D3DEE6"/>
												<stop  offset="0.5854" style="stop-color:#DAE3EA"/>
												<stop  offset="0.6323" style="stop-color:#EBF0F3"/>
												<stop  offset="0.6907" style="stop-color:#F6F9FA"/>
												<stop  offset="0.7726" style="stop-color:#FDFEFE"/>
												<stop  offset="1" style="stop-color:#FFFFFF"/>
											</linearGradient>
											<path fill="url(#SVGID_34_)" d="M256.474,257.014c-1.18,0.104-2.226-0.77-2.332-1.949l-1.456-16.31
												c-0.105-1.18,0.769-2.226,1.949-2.331l45.971-4.105c1.18-0.105,2.226,0.769,2.332,1.949l1.456,16.309
												c0.105,1.18-0.769,2.226-1.949,2.332L256.474,257.014z"/>
											
												<linearGradient id="SVGID_35_" gradientUnits="userSpaceOnUse" x1="315.5483" y1="354.3438" x2="315.5483" y2="369.984" gradientTransform="matrix(0.996 -0.0889 -0.0889 -0.996 -3.6126 632.7269)">
												<stop  offset="0" style="stop-color:#1A6BE4"/>
												<stop  offset="0.1619" style="stop-color:#1E77E9"/>
												<stop  offset="1" style="stop-color:#34B5FF"/>
											</linearGradient>
											<path fill="url(#SVGID_35_)" d="M302.385,252.234l-45.971,4.105c-0.811,0.072-1.526-0.525-1.599-1.337l-1.456-16.309
												c-0.072-0.811,0.526-1.527,1.337-1.599l45.971-4.104c0.811-0.072,1.527,0.526,1.599,1.337l1.456,16.309
												C303.794,251.447,303.195,252.163,302.385,252.234z"/>
											
												<linearGradient id="SVGID_36_" gradientUnits="userSpaceOnUse" x1="315.5483" y1="356.457" x2="315.5483" y2="370.8571" gradientTransform="matrix(0.996 -0.0889 -0.0889 -0.996 -3.6126 632.7269)">
												<stop  offset="0" style="stop-color:#FFFFFF;stop-opacity:0.5"/>
												<stop  offset="0.6882" style="stop-color:#FFFFFF;stop-opacity:0.0163"/>
												<stop  offset="0.9721" style="stop-color:#FFFFFF;stop-opacity:0.4567"/>
												<stop  offset="1" style="stop-color:#FFFFFF;stop-opacity:0.5"/>
											</linearGradient>
											<path fill="url(#SVGID_36_)" d="M278.716,247.473c10.208-0.912,20.312-3.397,23.667-4.936l-0.656-7.345
												c-0.071-0.791-0.769-1.374-1.559-1.303l-44.823,4.002c-0.79,0.07-1.374,0.769-1.303,1.559l0.697,7.806
												C259.634,247.731,268.402,248.394,278.716,247.473z"/>
											
												<text transform="matrix(0.996 -0.0889 0.0889 0.996 266.5977 251.1797)" fill="#FFFFFF" font-family="'ArialMT'" font-size="14.6212">SALE</text>
										</g>
										
											<radialGradient id="SVGID_37_" cx="276.6479" cy="283.0205" r="2.3311" gradientTransform="matrix(1 0 0 -1 0 501)" gradientUnits="userSpaceOnUse">
											<stop  offset="0" style="stop-color:#FFFFFF"/>
											<stop  offset="0.1907" style="stop-color:#F2F6FA"/>
											<stop  offset="0.5415" style="stop-color:#D1DEEB"/>
											<stop  offset="1" style="stop-color:#9CB9D5"/>
										</radialGradient>
										<circle fill="url(#SVGID_37_)" cx="276.648" cy="217.979" r="2.331"/>
									</g>
								</g>
								<g>
									
										<linearGradient id="SVGID_38_" gradientUnits="userSpaceOnUse" x1="118.0488" y1="154.752" x2="432.2754" y2="154.752" gradientTransform="matrix(1 0 0 -1 0 501)">
										<stop  offset="0" style="stop-color:#C9C9C9"/>
										<stop  offset="0.234" style="stop-color:#D5D5D5"/>
										<stop  offset="0.5396" style="stop-color:#E1E1E0"/>
										<stop  offset="0.7262" style="stop-color:#DCDCDC"/>
										<stop  offset="0.9348" style="stop-color:#CFCFCE"/>
										<stop  offset="1" style="stop-color:#C9C9C9"/>
									</linearGradient>
									<path fill="url(#SVGID_38_)" d="M425.39,350.104H124.934c-3.2,0-6.088-2.076-6.452-4.647l-0.433-3.063h314.227
										l-0.435,3.063C431.479,348.025,428.591,350.104,425.39,350.104z"/>
									
										<radialGradient id="SVGID_39_" cx="275.1621" cy="93.2534" r="180.0735" gradientTransform="matrix(1 0 0 -0.7987 0 392.1847)" gradientUnits="userSpaceOnUse">
										<stop  offset="0" style="stop-color:#FFFFFF"/>
										<stop  offset="0.5299" style="stop-color:#FDFDFD"/>
										<stop  offset="0.7208" style="stop-color:#F6F6F6"/>
										<stop  offset="0.8568" style="stop-color:#EBEBEB"/>
										<stop  offset="0.9661" style="stop-color:#DADADA"/>
										<stop  offset="1" style="stop-color:#D3D3D3"/>
									</radialGradient>
									<path fill="url(#SVGID_39_)" d="M428.026,343.98H122.298c-3.923,0-5.539-0.979-3.064-3.928l35.948-46.904
										c0.909-1.088,2.287-1.724,3.734-1.724h232.492c1.447,0,2.825,0.636,3.733,1.724l35.948,46.904
										C433.565,343.002,431.949,343.98,428.026,343.98z"/>
									<g>
										
											<radialGradient id="SVGID_40_" cx="275.1616" cy="-283.6802" r="127.3369" gradientTransform="matrix(1 0 0 -0.254 0 234.6519)" gradientUnits="userSpaceOnUse">
											<stop  offset="0.3613" style="stop-color:#E3E3E2"/>
											<stop  offset="0.7186" style="stop-color:#E1E1E1"/>
											<stop  offset="0.8473" style="stop-color:#DADADA"/>
											<stop  offset="0.9387" style="stop-color:#CECECE"/>
											<stop  offset="1" style="stop-color:#C1C1C1"/>
										</radialGradient>
										<path fill="url(#SVGID_40_)" d="M400.11,319.055H150.214c-2.165,0-3.542-0.52-3.081-1.154l16.492-22.678
											c0.348-0.479,2.139-0.863,4.001-0.863h215.07c1.861,0,3.652,0.386,4.001,0.863L403.19,317.9
											C403.652,318.535,402.274,319.055,400.11,319.055z"/>
										<path d="M178.266,297.536h-7.648c-0.869,0-1.448-0.183-1.295-0.408l0.363-0.532c0.152-0.223,0.974-0.402,1.835-0.402
											h7.582c0.861,0,1.449,0.181,1.313,0.402l-0.327,0.532C179.951,297.354,179.134,297.536,178.266,297.536z M194.464,296.193
											h-7.583c-0.861,0-1.665,0.18-1.794,0.402l-0.31,0.531c-0.131,0.227,0.466,0.408,1.335,0.408h7.648
											c0.869,0,1.667-0.184,1.782-0.408l0.273-0.531C195.932,296.373,195.326,296.193,194.464,296.193z M209.826,296.193h-7.583
											c-0.861,0-1.646,0.18-1.754,0.402l-0.257,0.531c-0.108,0.227,0.507,0.408,1.376,0.408h7.649
											c0.869,0,1.648-0.184,1.742-0.408l0.22-0.531C211.311,296.373,210.688,296.193,209.826,296.193z M225.188,296.193h-7.582
											c-0.861,0-1.629,0.18-1.714,0.402l-0.204,0.531c-0.086,0.227,0.548,0.408,1.417,0.408h7.648
											c0.869,0,1.631-0.184,1.701-0.408l0.167-0.531C226.69,296.373,226.049,296.193,225.188,296.193z M240.549,296.193h-7.583
											c-0.861,0-1.61,0.18-1.674,0.402l-0.151,0.531c-0.063,0.227,0.589,0.408,1.458,0.408h7.648
											c0.869,0,1.612-0.184,1.661-0.408l0.114-0.531C242.07,296.373,241.411,296.193,240.549,296.193z M255.911,296.193h-7.583
											c-0.861,0-1.593,0.18-1.634,0.402l-0.098,0.531c-0.042,0.227,0.629,0.408,1.498,0.408h7.648
											c0.869,0,1.594-0.184,1.62-0.408l0.061-0.531C257.45,296.373,256.772,296.193,255.911,296.193z M271.272,296.193h-7.582
											c-0.861,0-1.575,0.18-1.594,0.402l-0.045,0.531c-0.019,0.227,0.669,0.408,1.539,0.408h7.648
											c0.869,0,1.576-0.184,1.579-0.408l0.008-0.531C272.83,296.373,272.134,296.193,271.272,296.193z M286.634,296.193h-7.583
											c-0.861,0-1.557,0.18-1.553,0.402l0.008,0.531c0.003,0.227,0.71,0.408,1.58,0.408h7.648c0.869,0,1.558-0.184,1.539-0.408
											l-0.045-0.531C288.209,296.373,287.496,296.193,286.634,296.193z M301.996,296.193h-7.583
											c-0.861,0-1.539,0.18-1.513,0.402l0.061,0.531c0.026,0.227,0.751,0.408,1.62,0.408h7.648c0.869,0,1.54-0.184,1.498-0.408
											l-0.098-0.531C303.588,296.373,302.857,296.193,301.996,296.193z M317.357,296.193h-7.582
											c-0.861,0-1.521,0.18-1.474,0.402l0.114,0.531c0.048,0.227,0.792,0.408,1.66,0.408h7.647c0.869,0,1.521-0.184,1.458-0.408
											l-0.15-0.531C318.968,296.373,318.219,296.193,317.357,296.193z M332.719,296.193h-7.583c-0.86,0-1.503,0.18-1.433,0.402
											l0.167,0.531c0.071,0.227,0.833,0.408,1.701,0.408h7.647c0.869,0,1.503-0.184,1.417-0.408l-0.205-0.531
											C334.348,296.373,333.581,296.193,332.719,296.193z M348.081,296.193h-7.582c-0.861,0-1.485,0.18-1.393,0.402l0.221,0.531
											c0.093,0.227,0.873,0.408,1.742,0.408h7.647c0.869,0,1.485-0.184,1.376-0.408l-0.257-0.531
											C349.728,296.373,348.942,296.193,348.081,296.193z M363.442,296.193h-7.583c-0.861,0-1.468,0.18-1.354,0.402l0.273,0.531
											c0.115,0.227,0.914,0.408,1.782,0.408h7.648c0.869,0,1.466-0.184,1.335-0.408l-0.311-0.531
											C365.107,296.373,364.304,296.193,363.442,296.193z M378.804,296.193h-7.582c-0.86,0-1.448,0.18-1.313,0.402l0.327,0.531
											c0.138,0.227,0.954,0.408,1.822,0.408h7.648c0.869,0,1.448-0.184,1.295-0.408l-0.363-0.531
											C380.486,296.373,379.665,296.193,378.804,296.193z M177.403,298.326h-7.317c-0.874,0-1.708,0.185-1.864,0.412
											l-1.328,1.945c-0.161,0.234,0.429,0.426,1.318,0.426h7.448c0.889,0,1.727-0.19,1.872-0.426l1.197-1.945
											C178.87,298.511,178.276,298.326,177.403,298.326z M192.447,298.326h-7.318c-0.873,0-1.689,0.185-1.824,0.412
											l-1.141,1.945c-0.138,0.234,0.47,0.426,1.359,0.426h7.448c0.889,0,1.708-0.19,1.831-0.426l1.01-1.945
											C193.932,298.511,193.32,298.326,192.447,298.326z M207.49,298.326h-7.317c-0.874,0-1.672,0.185-1.784,0.412l-0.954,1.945
											c-0.115,0.234,0.512,0.426,1.4,0.426h7.448c0.889,0,1.69-0.19,1.79-0.426l0.823-1.945
											C208.993,298.511,208.364,298.326,207.49,298.326z M222.534,298.326h-7.318c-0.873,0-1.654,0.185-1.744,0.412
											l-0.766,1.945c-0.093,0.234,0.553,0.426,1.441,0.426h7.448c0.889,0,1.672-0.19,1.749-0.426l0.636-1.945
											C224.055,298.511,223.407,298.326,222.534,298.326z M237.578,298.326h-7.318c-0.873,0-1.636,0.185-1.704,0.412
											l-0.579,1.945c-0.07,0.234,0.594,0.426,1.482,0.426h7.448c0.889,0,1.653-0.19,1.708-0.426l0.448-1.945
											C239.116,298.511,238.451,298.326,237.578,298.326z M252.622,298.326h-7.318c-0.873,0-1.618,0.185-1.665,0.412
											l-0.391,1.945c-0.047,0.234,0.634,0.426,1.523,0.426h7.448c0.889,0,1.635-0.19,1.667-0.426l0.261-1.945
											C254.178,298.511,253.495,298.326,252.622,298.326z M267.665,298.326h-7.318c-0.873,0-1.6,0.185-1.625,0.412l-0.204,1.945
											c-0.024,0.234,0.676,0.426,1.564,0.426h7.448c0.889,0,1.617-0.19,1.625-0.426l0.074-1.945
											C269.239,298.511,268.538,298.326,267.665,298.326z M282.709,298.326h-7.318c-0.873,0-1.583,0.185-1.584,0.412
											l-0.017,1.945c-0.002,0.234,0.717,0.426,1.605,0.426h7.448c0.889,0,1.598-0.19,1.584-0.426l-0.114-1.945
											C284.301,298.511,283.582,298.326,282.709,298.326z M297.752,298.326h-7.318c-0.873,0-1.564,0.185-1.545,0.412
											l0.171,1.945c0.021,0.234,0.758,0.426,1.646,0.426h7.448c0.889,0,1.58-0.19,1.543-0.426l-0.301-1.945
											C299.362,298.511,298.625,298.326,297.752,298.326z M312.796,298.326h-7.317c-0.874,0-1.547,0.185-1.505,0.412
											l0.357,1.945c0.043,0.234,0.799,0.426,1.688,0.426h7.448c0.89,0,1.562-0.19,1.502-0.426l-0.487-1.945
											C314.424,298.511,313.669,298.326,312.796,298.326z M327.84,298.326h-7.317c-0.873,0-1.529,0.185-1.466,0.412l0.545,1.945
											c0.066,0.234,0.841,0.426,1.729,0.426h7.448c0.889,0,1.542-0.19,1.461-0.426l-0.676-1.945
											C329.485,298.511,328.713,298.326,327.84,298.326z M342.883,298.326h-7.316c-0.874,0-1.513,0.185-1.426,0.412l0.732,1.945
											c0.088,0.234,0.881,0.426,1.77,0.426h7.448c0.89,0,1.524-0.19,1.42-0.426l-0.862-1.945
											C344.547,298.511,343.757,298.326,342.883,298.326z M357.927,298.326h-7.317c-0.873,0-1.494,0.185-1.386,0.412
											l0.919,1.945c0.111,0.234,0.923,0.426,1.812,0.426h7.448c0.889,0,1.506-0.19,1.379-0.426l-1.05-1.945
											C359.608,298.511,358.8,298.326,357.927,298.326z M380.239,298.326h-14.586c-0.874,0-1.477,0.185-1.347,0.412l1.107,1.945
											c0.134,0.234,0.963,0.426,1.852,0.426h14.848c0.889,0,1.479-0.19,1.316-0.426l-1.328-1.945
											C381.946,298.511,381.112,298.326,380.239,298.326z M377.008,304.854h7.624c0.909,0,1.51-0.201,1.342-0.446l-1.391-2.036
											c-0.164-0.239-1.021-0.434-1.914-0.434h-7.486c-0.894,0-1.499,0.193-1.351,0.434l1.254,2.036
											C375.237,304.652,376.099,304.854,377.008,304.854z M361.335,304.854h7.624c0.91,0,1.53-0.201,1.385-0.446l-1.194-2.036
											c-0.142-0.239-0.979-0.434-1.872-0.434h-7.487c-0.895,0-1.517,0.193-1.394,0.434l1.059,2.036
											C359.584,304.652,360.426,304.854,361.335,304.854z M345.663,304.854h7.624c0.91,0,1.549-0.201,1.428-0.446l-0.998-2.036
											c-0.118-0.239-0.937-0.434-1.83-0.434H344.4c-0.895,0-1.536,0.193-1.436,0.434l0.862,2.036
											C343.931,304.652,344.753,304.854,345.663,304.854z M329.99,304.854h7.624c0.91,0,1.567-0.201,1.471-0.446l-0.802-2.036
											c-0.094-0.239-0.896-0.434-1.788-0.434h-7.487c-0.894,0-1.555,0.193-1.477,0.434l0.666,2.036
											C328.277,304.652,329.081,304.854,329.99,304.854z M314.318,304.854h7.624c0.909,0,1.587-0.201,1.514-0.446l-0.606-2.036
											c-0.07-0.239-0.854-0.434-1.747-0.434h-7.486c-0.895,0-1.573,0.193-1.519,0.434l0.47,2.036
											C312.625,304.652,313.408,304.854,314.318,304.854z M298.646,304.854h7.623c0.91,0,1.607-0.201,1.559-0.446l-0.41-2.036
											c-0.048-0.239-0.812-0.434-1.705-0.434h-7.487c-0.894,0-1.592,0.193-1.56,0.434l0.273,2.036
											C296.971,304.652,297.735,304.854,298.646,304.854z M282.973,304.854h7.624c0.91,0,1.626-0.201,1.601-0.446l-0.214-2.036
											c-0.025-0.239-0.77-0.434-1.663-0.434h-7.487c-0.894,0-1.611,0.193-1.602,0.434l0.077,2.036
											C281.318,304.652,282.063,304.854,282.973,304.854z M267.3,304.854h7.624c0.91,0,1.646-0.201,1.643-0.446l-0.018-2.036
											c-0.002-0.239-0.728-0.434-1.621-0.434h-7.487c-0.894,0-1.629,0.193-1.643,0.434l-0.119,2.036
											C265.665,304.652,266.391,304.854,267.3,304.854z M251.628,304.854h7.624c0.91,0,1.665-0.201,1.686-0.446l0.179-2.036
											c0.021-0.239-0.687-0.434-1.58-0.434h-7.487c-0.893,0-1.647,0.193-1.685,0.434l-0.315,2.036
											C250.012,304.652,250.718,304.854,251.628,304.854z M235.955,304.854h7.624c0.91,0,1.684-0.201,1.729-0.446l0.375-2.036
											c0.044-0.239-0.645-0.434-1.538-0.434h-7.487c-0.893,0-1.666,0.193-1.726,0.434l-0.511,2.036
											C234.358,304.652,235.045,304.854,235.955,304.854z M220.283,304.854h7.624c0.91,0,1.703-0.201,1.772-0.446l0.571-2.036
											c0.067-0.239-0.603-0.434-1.496-0.434h-7.487c-0.893,0-1.685,0.193-1.768,0.434l-0.708,2.036
											C218.705,304.652,219.373,304.854,220.283,304.854z M204.61,304.854h7.624c0.91,0,1.723-0.201,1.815-0.446l0.767-2.036
											c0.09-0.239-0.561-0.434-1.454-0.434h-7.487c-0.893,0-1.704,0.193-1.81,0.434l-0.904,2.036
											C203.052,304.652,203.7,304.854,204.61,304.854z M188.938,304.854h7.624c0.91,0,1.742-0.201,1.859-0.446l0.963-2.036
											c0.113-0.239-0.52-0.434-1.413-0.434h-7.487c-0.893,0-1.722,0.193-1.852,0.434l-1.1,2.036
											C187.398,304.652,188.028,304.854,188.938,304.854z M165.693,304.854h15.196c0.91,0,1.761-0.201,1.901-0.446l1.159-2.036
											c0.137-0.239-0.478-0.434-1.371-0.434h-14.923c-0.894,0-1.75,0.193-1.914,0.434l-1.391,2.036
											C164.183,304.652,164.783,304.854,165.693,304.854z M351.586,308.775h7.808c0.933,0,1.579-0.209,1.445-0.469l-1.101-2.135
											c-0.129-0.251-0.977-0.453-1.891-0.453h-7.664c-0.915,0-1.564,0.202-1.452,0.453l0.958,2.135
											C349.805,308.566,350.654,308.775,351.586,308.775z M335.521,308.775h7.808c0.932,0,1.599-0.209,1.49-0.469l-0.896-2.135
											c-0.104-0.251-0.932-0.453-1.847-0.453h-7.664c-0.915,0-1.584,0.202-1.496,0.453l0.752,2.135
											C333.76,308.566,334.589,308.775,335.521,308.775z M319.455,308.775h7.808c0.933,0,1.619-0.209,1.536-0.469l-0.688-2.135
											c-0.081-0.251-0.889-0.453-1.803-0.453h-7.664c-0.915,0-1.604,0.202-1.54,0.453l0.547,2.135
											C317.714,308.566,318.523,308.775,319.455,308.775z M303.39,308.775h7.808c0.932,0,1.639-0.209,1.581-0.469l-0.483-2.135
											c-0.057-0.251-0.844-0.453-1.759-0.453h-7.664c-0.915,0-1.624,0.202-1.583,0.453l0.34,2.135
											C301.669,308.566,302.458,308.775,303.39,308.775z M287.324,308.775h7.807c0.932,0,1.66-0.209,1.626-0.469l-0.277-2.135
											c-0.033-0.251-0.8-0.453-1.715-0.453h-7.664c-0.915,0-1.644,0.202-1.627,0.453l0.134,2.135
											C285.624,308.566,286.393,308.775,287.324,308.775z M271.258,308.775h7.808c0.932,0,1.68-0.209,1.671-0.469l-0.072-2.135
											c-0.008-0.251-0.757-0.453-1.671-0.453h-7.664c-0.915,0-1.663,0.202-1.671,0.453l-0.071,2.135
											C269.579,308.566,270.327,308.775,271.258,308.775z M255.193,308.775H263c0.932,0,1.7-0.209,1.716-0.469l0.134-2.135
											c0.016-0.251-0.713-0.453-1.627-0.453h-7.664c-0.915,0-1.683,0.202-1.715,0.453l-0.277,2.135
											C253.533,308.566,254.261,308.775,255.193,308.775z M239.127,308.775h7.808c0.932,0,1.72-0.209,1.761-0.469l0.34-2.135
											c0.04-0.251-0.669-0.453-1.584-0.453h-7.664c-0.915,0-1.702,0.202-1.759,0.453l-0.483,2.135
											C237.488,308.566,238.196,308.775,239.127,308.775z M223.062,308.775h7.807c0.932,0,1.741-0.209,1.807-0.469l0.546-2.135
											c0.064-0.251-0.625-0.453-1.54-0.453h-7.665c-0.914,0-1.721,0.202-1.802,0.453l-0.689,2.135
											C221.443,308.566,222.13,308.775,223.062,308.775z M206.997,308.775h7.807c0.932,0,1.761-0.209,1.852-0.469l0.751-2.135
											c0.088-0.251-0.582-0.453-1.496-0.453h-7.664c-0.915,0-1.741,0.202-1.846,0.453l-0.895,2.135
											C205.397,308.566,206.064,308.775,206.997,308.775z M190.931,308.775h7.808c0.932,0,1.781-0.209,1.897-0.469l0.958-2.135
											c0.113-0.251-0.538-0.453-1.452-0.453h-7.665c-0.914,0-1.76,0.202-1.89,0.453l-1.101,2.135
											C189.352,308.566,189.999,308.775,190.931,308.775z M163.053,308.775h19.62c0.932,0,1.801-0.209,1.942-0.469l1.163-2.135
											c0.137-0.251-0.494-0.453-1.409-0.453h-19.26c-0.915,0-1.794,0.202-1.966,0.453l-1.458,2.135
											C161.509,308.566,162.121,308.775,163.053,308.775z M367.652,308.775h19.62c0.932,0,1.544-0.209,1.366-0.469l-1.458-2.135
											c-0.172-0.251-1.052-0.453-1.966-0.453h-19.26c-0.915,0-1.545,0.202-1.408,0.453l1.163,2.135
											C365.85,308.566,366.72,308.775,367.652,308.775z M345.321,312.895h8c0.955,0,1.625-0.222,1.499-0.492l-1.048-2.24
											c-0.124-0.264-0.982-0.477-1.92-0.477h-7.85c-0.937,0-1.611,0.213-1.505,0.477l0.898,2.24
											C343.504,312.673,344.367,312.895,345.321,312.895z M328.841,312.895h8c0.955,0,1.646-0.222,1.546-0.492l-0.832-2.24
											c-0.098-0.264-0.937-0.477-1.873-0.477h-7.85c-0.938,0-1.631,0.213-1.551,0.477l0.682,2.24
											C327.046,312.673,327.887,312.895,328.841,312.895z M312.362,312.895h8c0.955,0,1.668-0.222,1.594-0.492l-0.616-2.24
											c-0.073-0.264-0.891-0.477-1.827-0.477h-7.85c-0.938,0-1.652,0.213-1.597,0.477l0.465,2.24
											C310.587,312.673,311.407,312.895,312.362,312.895z M295.882,312.895h8c0.955,0,1.689-0.222,1.641-0.492l-0.399-2.24
											c-0.047-0.264-0.844-0.477-1.781-0.477h-7.85c-0.937,0-1.672,0.213-1.643,0.477l0.25,2.24
											C294.129,312.673,294.927,312.895,295.882,312.895z M279.402,312.895h8c0.955,0,1.71-0.222,1.688-0.492l-0.184-2.24
											c-0.021-0.264-0.798-0.477-1.735-0.477h-7.85c-0.937,0-1.693,0.213-1.689,0.477l0.033,2.24
											C277.67,312.673,278.447,312.895,279.402,312.895z M262.922,312.895h8c0.955,0,1.732-0.222,1.736-0.492l0.033-2.24
											c0.004-0.264-0.752-0.477-1.689-0.477h-7.85c-0.937,0-1.714,0.213-1.735,0.477l-0.183,2.24
											C261.211,312.673,261.967,312.895,262.922,312.895z M246.442,312.895h8c0.955,0,1.753-0.222,1.784-0.492l0.249-2.24
											c0.029-0.264-0.707-0.477-1.643-0.477h-7.85c-0.937,0-1.734,0.213-1.781,0.477l-0.399,2.24
											C244.753,312.673,245.488,312.895,246.442,312.895z M229.962,312.895h8c0.955,0,1.774-0.222,1.831-0.492l0.465-2.24
											c0.055-0.264-0.66-0.477-1.597-0.477h-7.85c-0.937,0-1.755,0.213-1.827,0.477l-0.616,2.24
											C228.294,312.673,229.008,312.895,229.962,312.895z M213.482,312.895h8c0.955,0,1.796-0.222,1.878-0.492l0.682-2.24
											c0.08-0.264-0.614-0.477-1.551-0.477h-7.85c-0.937,0-1.775,0.213-1.873,0.477l-0.832,2.24
											C211.836,312.673,212.528,312.895,213.482,312.895z M197.003,312.895h8c0.955,0,1.817-0.222,1.926-0.492l0.898-2.24
											c0.106-0.264-0.568-0.477-1.505-0.477h-7.85c-0.937,0-1.796,0.213-1.919,0.477l-1.048,2.24
											C195.377,312.673,196.048,312.895,197.003,312.895z M160.282,312.895h28.241c0.955,0,1.838-0.222,1.973-0.492l1.114-2.24
											c0.131-0.264-0.522-0.477-1.459-0.477h-27.71c-0.937,0-1.841,0.213-2.021,0.477l-1.53,2.24
											C158.704,312.673,159.328,312.895,160.282,312.895z M361.801,312.895h28.241c0.955,0,1.578-0.222,1.393-0.492l-1.529-2.24
											c-0.181-0.264-1.084-0.477-2.021-0.477h-27.71c-0.937,0-1.59,0.213-1.459,0.477l1.114,2.24
											C359.963,312.673,360.847,312.895,361.801,312.895z M350.961,317.219h8.59c0.979,0,1.658-0.23,1.519-0.517l-0.332-0.675
											c-0.14-0.282-1.037-0.512-2.006-0.512h-8.507c-0.969,0-1.657,0.229-1.539,0.512l0.285,0.675
											C349.09,316.986,349.982,317.219,350.961,317.219z M367.663,317.219h8.589c0.979,0,1.637-0.23,1.469-0.517l-1.384-2.354
											c-0.162-0.275-1.072-0.5-2.032-0.5h-8.424c-0.96,0-1.623,0.225-1.479,0.5l1.22,2.354
											C365.77,316.986,366.684,317.219,367.663,317.219z M384.363,317.219h8.59c0.979,0,1.614-0.23,1.419-0.517l-0.461-0.675
											c-0.192-0.282-1.134-0.512-2.104-0.512h-8.506c-0.97,0-1.615,0.229-1.441,0.512l0.414,0.675
											C382.449,316.986,383.385,317.219,384.363,317.219z M334.058,317.219h8.203c0.979,0,1.682-0.23,1.569-0.517l-0.926-2.354
											c-0.109-0.275-0.976-0.5-1.936-0.5h-8.045c-0.96,0-1.665,0.225-1.575,0.5l0.769,2.354
											C332.21,316.986,333.079,317.219,334.058,317.219z M227.834,314.348l-0.647,2.354c-0.079,0.284,0.651,0.517,1.63,0.517
											h75.793c0.979,0,1.731-0.23,1.68-0.517l-0.419-2.354c-0.05-0.275-0.868-0.5-1.828-0.5H229.71
											C228.75,313.848,227.91,314.07,227.834,314.348z M208.063,317.219h12.059c0.979,0,1.843-0.23,1.93-0.517l0.716-2.354
											c0.084-0.275-0.626-0.5-1.586-0.5h-11.827c-0.96,0-1.827,0.225-1.935,0.5l-0.926,2.354
											C206.382,316.986,207.084,317.219,208.063,317.219z M191.166,317.219h8.203c0.979,0,1.871-0.23,1.991-0.517l0.995-2.354
											c0.117-0.275-0.566-0.5-1.526-0.5h-8.045c-0.96,0-1.848,0.225-1.983,0.5l-1.153,2.354
											C189.507,316.986,190.187,317.219,191.166,317.219z M313.304,317.219h12.06c0.979,0,1.704-0.23,1.619-0.517l-0.699-2.354
											c-0.083-0.275-0.928-0.5-1.888-0.5H312.57c-0.96,0-1.692,0.225-1.635,0.5l0.489,2.354
											C311.484,316.986,312.325,317.219,313.304,317.219z M174.269,317.219h8.203c0.979,0,1.893-0.23,2.041-0.517l1.223-2.354
											c0.144-0.275-0.519-0.5-1.479-0.5h-8.045c-0.96,0-1.87,0.225-2.032,0.5l-1.381,2.354
											C172.632,316.986,173.29,317.219,174.269,317.219z M157.371,317.219h8.203c0.979,0,1.915-0.23,2.091-0.517l1.45-2.354
											c0.17-0.275-0.47-0.5-1.43-0.5h-8.045c-0.96,0-1.891,0.225-2.08,0.5l-1.608,2.354
											C155.757,316.986,156.392,317.219,157.371,317.219z"/>
										
											<radialGradient id="SVGID_41_" cx="274.5571" cy="-221.9014" r="143.9022" gradientTransform="matrix(1 0 0 -0.2693 0 223.6195)" gradientUnits="userSpaceOnUse">
											<stop  offset="0" style="stop-color:#787878"/>
											<stop  offset="0.2712" style="stop-color:#6C6C6B"/>
											<stop  offset="0.7657" style="stop-color:#4B4B4A"/>
											<stop  offset="1" style="stop-color:#393938"/>
										</radialGradient>
										<path fill="url(#SVGID_41_)" d="M178.244,297.277h-7.65c-0.869,0-1.449-0.182-1.295-0.406l0.363-0.533
											c0.152-0.223,0.974-0.402,1.835-0.402h7.584c0.862,0,1.45,0.181,1.313,0.402l-0.327,0.533
											C179.93,297.096,179.113,297.277,178.244,297.277z M194.446,295.936h-7.584c-0.861,0-1.665,0.181-1.795,0.402
											l-0.311,0.533c-0.131,0.225,0.467,0.406,1.336,0.406h7.65c0.869,0,1.667-0.182,1.783-0.406l0.273-0.533
											C195.914,296.115,195.308,295.936,194.446,295.936z M209.812,295.936h-7.584c-0.862,0-1.647,0.181-1.755,0.402
											l-0.257,0.533c-0.109,0.225,0.507,0.406,1.376,0.406h7.65c0.869,0,1.649-0.182,1.742-0.406l0.221-0.533
											C211.297,296.115,210.673,295.936,209.812,295.936z M225.176,295.936h-7.584c-0.861,0-1.629,0.181-1.714,0.402
											l-0.204,0.533c-0.086,0.225,0.548,0.406,1.417,0.406h7.65c0.869,0,1.631-0.182,1.702-0.406l0.167-0.533
											C226.68,296.115,226.038,295.936,225.176,295.936z M240.542,295.936h-7.584c-0.861,0-1.611,0.181-1.674,0.402
											l-0.151,0.533c-0.063,0.225,0.589,0.406,1.458,0.406h7.65c0.869,0,1.613-0.182,1.661-0.406l0.114-0.533
											C242.063,296.115,241.403,295.936,240.542,295.936z M255.907,295.936h-7.584c-0.862,0-1.593,0.181-1.634,0.402
											l-0.098,0.533c-0.042,0.225,0.629,0.406,1.499,0.406h7.65c0.869,0,1.595-0.182,1.62-0.406l0.062-0.533
											C257.446,296.115,256.768,295.936,255.907,295.936z M271.271,295.936h-7.584c-0.861,0-1.575,0.181-1.594,0.402
											l-0.045,0.533c-0.019,0.225,0.67,0.406,1.539,0.406h7.65c0.869,0,1.576-0.182,1.58-0.406l0.008-0.533
											C272.829,296.115,272.133,295.936,271.271,295.936z M286.637,295.936h-7.584c-0.861,0-1.557,0.181-1.554,0.402
											l0.008,0.533c0.003,0.225,0.711,0.406,1.58,0.406h7.65c0.869,0,1.558-0.182,1.539-0.406l-0.045-0.533
											C288.212,296.115,287.498,295.936,286.637,295.936z M302.002,295.936h-7.584c-0.862,0-1.54,0.181-1.514,0.402l0.061,0.533
											c0.026,0.225,0.751,0.406,1.62,0.406h7.65c0.869,0,1.54-0.182,1.498-0.406l-0.098-0.533
											C303.595,296.115,302.863,295.936,302.002,295.936z M317.367,295.936h-7.584c-0.861,0-1.521,0.181-1.474,0.402
											l0.114,0.533c0.048,0.225,0.792,0.406,1.661,0.406h7.65c0.868,0,1.521-0.182,1.458-0.406l-0.151-0.533
											C318.978,296.115,318.229,295.936,317.367,295.936z M332.732,295.936h-7.584c-0.861,0-1.504,0.181-1.434,0.402
											l0.167,0.533c0.071,0.225,0.833,0.406,1.702,0.406h7.65c0.868,0,1.503-0.182,1.417-0.406l-0.205-0.533
											C334.361,296.115,333.594,295.936,332.732,295.936z M348.097,295.936h-7.584c-0.861,0-1.484,0.181-1.393,0.402l0.22,0.533
											c0.093,0.225,0.873,0.406,1.742,0.406h7.65c0.868,0,1.484-0.182,1.376-0.406l-0.258-0.533
											C349.744,296.115,348.958,295.936,348.097,295.936z M363.462,295.936h-7.584c-0.861,0-1.467,0.181-1.353,0.402
											l0.273,0.533c0.115,0.225,0.914,0.406,1.783,0.406h7.65c0.868,0,1.467-0.182,1.336-0.406l-0.312-0.533
											C365.127,296.115,364.324,295.936,363.462,295.936z M378.827,295.936h-7.584c-0.861,0-1.449,0.181-1.313,0.402
											l0.327,0.533c0.138,0.225,0.955,0.406,1.824,0.406h7.65c0.868,0,1.448-0.182,1.295-0.406l-0.363-0.533
											C380.51,296.115,379.688,295.936,378.827,295.936z M177.381,298.068h-7.319c-0.874,0-1.708,0.186-1.864,0.414
											l-1.328,1.944c-0.161,0.235,0.429,0.427,1.318,0.427h7.45c0.889,0,1.728-0.19,1.873-0.427l1.198-1.944
											C178.849,298.254,178.255,298.068,177.381,298.068z M192.428,298.068h-7.319c-0.874,0-1.69,0.186-1.824,0.414
											l-1.141,1.944c-0.138,0.235,0.471,0.427,1.36,0.427h7.45c0.889,0,1.709-0.19,1.831-0.427l1.011-1.944
											C193.914,298.254,193.302,298.068,192.428,298.068z M207.475,298.068h-7.319c-0.874,0-1.672,0.186-1.785,0.414
											l-0.954,1.944c-0.115,0.235,0.512,0.427,1.4,0.427h7.45c0.889,0,1.69-0.19,1.79-0.427l0.823-1.944
											C208.979,298.254,208.349,298.068,207.475,298.068z M222.522,298.068h-7.319c-0.874,0-1.654,0.186-1.745,0.414
											l-0.766,1.944c-0.093,0.235,0.553,0.427,1.441,0.427h7.45c0.889,0,1.672-0.19,1.75-0.427l0.635-1.944
											C224.043,298.254,223.396,298.068,222.522,298.068z M237.569,298.068h-7.319c-0.874,0-1.637,0.186-1.705,0.414
											l-0.579,1.944c-0.07,0.235,0.594,0.427,1.483,0.427h7.45c0.889,0,1.654-0.19,1.708-0.427l0.448-1.944
											C239.108,298.254,238.443,298.068,237.569,298.068z M252.616,298.068h-7.319c-0.873,0-1.619,0.186-1.665,0.414
											l-0.392,1.944c-0.047,0.235,0.635,0.427,1.524,0.427h7.45c0.889,0,1.635-0.19,1.667-0.427l0.261-1.944
											C254.173,298.254,253.49,298.068,252.616,298.068z M267.664,298.068h-7.319c-0.874,0-1.601,0.186-1.625,0.414
											l-0.204,1.944c-0.025,0.235,0.676,0.427,1.565,0.427h7.45c0.889,0,1.617-0.19,1.625-0.427l0.074-1.944
											C269.238,298.254,268.537,298.068,267.664,298.068z M282.71,298.068h-7.319c-0.874,0-1.583,0.186-1.585,0.414
											l-0.017,1.944c-0.002,0.235,0.717,0.427,1.606,0.427h7.45c0.889,0,1.598-0.19,1.584-0.427l-0.114-1.944
											C284.303,298.254,283.584,298.068,282.71,298.068z M297.757,298.068h-7.319c-0.874,0-1.565,0.186-1.545,0.414l0.17,1.944
											c0.021,0.235,0.758,0.427,1.647,0.427h7.45c0.889,0,1.58-0.19,1.544-0.427l-0.301-1.944
											C299.368,298.254,298.631,298.068,297.757,298.068z M312.805,298.068h-7.319c-0.874,0-1.547,0.186-1.505,0.414
											l0.358,1.944c0.043,0.235,0.799,0.427,1.688,0.427h7.449c0.89,0,1.563-0.19,1.502-0.427l-0.487-1.944
											C314.433,298.254,313.678,298.068,312.805,298.068z M327.852,298.068h-7.318c-0.874,0-1.53,0.186-1.465,0.414l0.545,1.944
											c0.065,0.235,0.84,0.427,1.729,0.427h7.45c0.889,0,1.543-0.19,1.461-0.427l-0.676-1.944
											C329.497,298.254,328.725,298.068,327.852,298.068z M342.898,298.068h-7.319c-0.874,0-1.512,0.186-1.425,0.414
											l0.731,1.944c0.088,0.235,0.881,0.427,1.771,0.427h7.45c0.889,0,1.523-0.19,1.42-0.427l-0.863-1.944
											C344.563,298.254,343.772,298.068,342.898,298.068z M357.946,298.068h-7.319c-0.874,0-1.494,0.186-1.386,0.414
											l0.919,1.944c0.111,0.235,0.923,0.427,1.812,0.427h7.45c0.89,0,1.507-0.19,1.379-0.427l-1.05-1.944
											C359.627,298.254,358.819,298.068,357.946,298.068z M380.263,298.068h-14.589c-0.874,0-1.476,0.186-1.346,0.414
											l1.106,1.944c0.135,0.235,0.965,0.427,1.854,0.427h14.85c0.89,0,1.479-0.19,1.318-0.427l-1.328-1.944
											C381.971,298.254,381.136,298.068,380.263,298.068z M377.03,304.6h7.625c0.91,0,1.511-0.201,1.343-0.447l-1.391-2.036
											c-0.164-0.24-1.021-0.435-1.914-0.435h-7.489c-0.895,0-1.499,0.193-1.352,0.435l1.255,2.036
											C375.259,304.398,376.12,304.6,377.03,304.6z M361.354,304.6h7.625c0.91,0,1.53-0.201,1.387-0.447l-1.195-2.036
											c-0.141-0.24-0.979-0.435-1.873-0.435h-7.488c-0.894,0-1.518,0.193-1.393,0.435l1.058,2.036
											C359.603,304.398,360.444,304.6,361.354,304.6z M345.678,304.6h7.625c0.91,0,1.549-0.201,1.429-0.447l-0.999-2.036
											c-0.117-0.24-0.938-0.435-1.83-0.435h-7.489c-0.895,0-1.536,0.193-1.435,0.435l0.861,2.036
											C343.946,304.398,344.769,304.6,345.678,304.6z M330.002,304.6h7.625c0.91,0,1.568-0.201,1.471-0.447l-0.802-2.036
											c-0.095-0.24-0.895-0.435-1.789-0.435h-7.489c-0.894,0-1.555,0.193-1.477,0.435l0.666,2.036
											C328.29,304.398,329.092,304.6,330.002,304.6z M314.327,304.6h7.625c0.91,0,1.588-0.201,1.515-0.447l-0.605-2.036
											c-0.071-0.24-0.854-0.435-1.747-0.435h-7.489c-0.894,0-1.573,0.193-1.518,0.435l0.469,2.036
											C312.633,304.398,313.417,304.6,314.327,304.6z M298.65,304.6h7.625c0.909,0,1.606-0.201,1.558-0.447l-0.41-2.036
											c-0.048-0.24-0.812-0.435-1.705-0.435h-7.489c-0.894,0-1.592,0.193-1.56,0.435l0.273,2.036
											C296.976,304.398,297.741,304.6,298.65,304.6z M282.975,304.6h7.625c0.91,0,1.626-0.201,1.601-0.447l-0.213-2.036
											c-0.025-0.24-0.77-0.435-1.664-0.435h-7.489c-0.894,0-1.611,0.193-1.602,0.435l0.077,2.036
											C281.319,304.398,282.064,304.6,282.975,304.6z M267.298,304.6h7.625c0.91,0,1.646-0.201,1.644-0.447l-0.018-2.036
											c-0.002-0.24-0.728-0.435-1.622-0.435h-7.489c-0.894,0-1.629,0.193-1.644,0.435l-0.119,2.036
											C265.663,304.398,266.389,304.6,267.298,304.6z M251.623,304.6h7.625c0.91,0,1.665-0.201,1.687-0.447l0.178-2.036
											c0.021-0.24-0.686-0.435-1.58-0.435h-7.489c-0.894,0-1.648,0.193-1.685,0.435l-0.315,2.036
											C250.006,304.398,250.712,304.6,251.623,304.6z M235.946,304.6h7.625c0.91,0,1.685-0.201,1.729-0.447l0.375-2.036
											c0.044-0.24-0.645-0.435-1.538-0.435h-7.489c-0.894,0-1.667,0.193-1.727,0.435l-0.512,2.036
											C234.349,304.398,235.037,304.6,235.946,304.6z M220.271,304.6h7.625c0.91,0,1.704-0.201,1.772-0.447l0.571-2.036
											c0.067-0.24-0.603-0.435-1.496-0.435h-7.489c-0.894,0-1.685,0.193-1.769,0.435l-0.708,2.036
											C218.692,304.398,219.36,304.6,220.271,304.6z M204.595,304.6h7.625c0.91,0,1.723-0.201,1.816-0.447l0.767-2.036
											c0.09-0.24-0.561-0.435-1.455-0.435h-7.488c-0.894,0-1.704,0.193-1.811,0.435l-0.903,2.036
											C203.036,304.398,203.685,304.6,204.595,304.6z M188.918,304.6h7.625c0.91,0,1.742-0.201,1.859-0.447l0.963-2.036
											c0.113-0.24-0.52-0.435-1.413-0.435h-7.489c-0.894,0-1.723,0.193-1.852,0.435l-1.1,2.036
											C187.379,304.398,188.009,304.6,188.918,304.6z M165.669,304.6h15.199c0.91,0,1.762-0.201,1.902-0.447l1.159-2.036
											c0.136-0.24-0.478-0.435-1.371-0.435h-14.927c-0.894,0-1.75,0.193-1.914,0.435l-1.391,2.036
											C164.158,304.398,164.759,304.6,165.669,304.6z M351.603,308.523h7.81c0.932,0,1.579-0.211,1.446-0.469l-1.102-2.136
											c-0.129-0.251-0.976-0.454-1.891-0.454H350.2c-0.915,0-1.565,0.203-1.453,0.454l0.958,2.136
											C349.821,308.313,350.671,308.523,351.603,308.523z M335.534,308.523h7.809c0.933,0,1.6-0.211,1.491-0.469l-0.895-2.136
											c-0.105-0.251-0.933-0.454-1.848-0.454h-7.666c-0.915,0-1.585,0.203-1.497,0.454l0.752,2.136
											C333.772,308.313,334.602,308.523,335.534,308.523z M319.465,308.523h7.81c0.932,0,1.619-0.211,1.535-0.469l-0.688-2.136
											c-0.081-0.251-0.888-0.454-1.803-0.454h-7.666c-0.915,0-1.604,0.203-1.54,0.454l0.546,2.136
											C317.724,308.313,318.533,308.523,319.465,308.523z M303.396,308.523h7.809c0.932,0,1.64-0.211,1.581-0.469l-0.483-2.136
											c-0.057-0.251-0.844-0.454-1.759-0.454h-7.666c-0.915,0-1.624,0.203-1.584,0.454l0.34,2.136
											C301.675,308.313,302.464,308.523,303.396,308.523z M287.327,308.523h7.809c0.932,0,1.66-0.211,1.626-0.469l-0.277-2.136
											c-0.033-0.251-0.801-0.454-1.715-0.454h-7.666c-0.915,0-1.644,0.203-1.628,0.454l0.134,2.136
											C285.626,308.313,286.395,308.523,287.327,308.523z M271.258,308.523h7.809c0.932,0,1.68-0.211,1.671-0.469l-0.072-2.136
											c-0.008-0.251-0.757-0.454-1.671-0.454h-7.666c-0.915,0-1.663,0.203-1.671,0.454l-0.072,2.136
											C269.577,308.313,270.326,308.523,271.258,308.523z M255.188,308.523h7.809c0.932,0,1.701-0.211,1.717-0.469l0.134-2.136
											c0.016-0.251-0.713-0.454-1.628-0.454h-7.666c-0.915,0-1.683,0.203-1.715,0.454l-0.278,2.136
											C253.529,308.313,254.257,308.523,255.188,308.523z M239.12,308.523h7.809c0.932,0,1.721-0.211,1.762-0.469l0.34-2.136
											c0.04-0.251-0.669-0.454-1.584-0.454h-7.666c-0.915,0-1.702,0.203-1.759,0.454l-0.483,2.136
											C237.48,308.313,238.188,308.523,239.12,308.523z M223.05,308.523h7.809c0.932,0,1.741-0.211,1.807-0.469l0.546-2.136
											c0.064-0.251-0.625-0.454-1.54-0.454h-7.666c-0.915,0-1.722,0.203-1.803,0.454l-0.689,2.136
											C221.431,308.313,222.119,308.523,223.05,308.523z M206.981,308.523h7.809c0.932,0,1.761-0.211,1.852-0.469l0.752-2.136
											c0.088-0.251-0.582-0.454-1.496-0.454h-7.666c-0.915,0-1.742,0.203-1.847,0.454l-0.895,2.136
											C205.382,308.313,206.049,308.523,206.981,308.523z M190.912,308.523h7.809c0.932,0,1.782-0.211,1.898-0.469l0.958-2.136
											c0.112-0.251-0.538-0.454-1.453-0.454h-7.666c-0.915,0-1.761,0.203-1.891,0.454l-1.101,2.136
											C189.333,308.313,189.98,308.523,190.912,308.523z M163.028,308.523h19.624c0.932,0,1.802-0.211,1.943-0.469l1.163-2.136
											c0.137-0.251-0.494-0.454-1.409-0.454h-19.264c-0.915,0-1.795,0.203-1.966,0.454l-1.458,2.136
											C161.484,308.313,162.096,308.523,163.028,308.523z M367.672,308.523h19.624c0.933,0,1.544-0.211,1.367-0.469
											l-1.458-2.136c-0.171-0.251-1.052-0.454-1.966-0.454h-19.266c-0.915,0-1.545,0.203-1.408,0.454l1.163,2.136
											C365.87,308.313,366.74,308.523,367.672,308.523z M345.337,312.643h8.002c0.955,0,1.626-0.221,1.499-0.492l-1.048-2.24
											c-0.123-0.264-0.982-0.477-1.919-0.477h-7.853c-0.937,0-1.61,0.213-1.506,0.477l0.898,2.24
											C343.52,312.422,344.382,312.643,345.337,312.643z M328.854,312.643h8.003c0.954,0,1.646-0.221,1.546-0.492l-0.833-2.24
											c-0.099-0.264-0.938-0.477-1.874-0.477h-7.853c-0.937,0-1.632,0.213-1.551,0.477l0.682,2.24
											C327.057,312.422,327.898,312.643,328.854,312.643z M312.37,312.643h8.002c0.955,0,1.668-0.221,1.594-0.492l-0.616-2.24
											c-0.071-0.264-0.89-0.477-1.826-0.477h-7.853c-0.937,0-1.652,0.213-1.597,0.477l0.465,2.24
											C310.595,312.422,311.415,312.643,312.37,312.643z M295.886,312.643h8.002c0.955,0,1.689-0.221,1.641-0.492l-0.4-2.24
											c-0.047-0.264-0.844-0.477-1.781-0.477h-7.852c-0.937,0-1.673,0.213-1.644,0.477l0.249,2.24
											C294.133,312.422,294.932,312.643,295.886,312.643z M279.403,312.643h8.002c0.955,0,1.71-0.221,1.688-0.492l-0.184-2.24
											c-0.021-0.264-0.798-0.477-1.735-0.477h-7.852c-0.937,0-1.693,0.213-1.689,0.477l0.033,2.24
											C277.671,312.422,278.448,312.643,279.403,312.643z M262.919,312.643h8.002c0.955,0,1.732-0.221,1.736-0.492l0.033-2.24
											c0.003-0.264-0.753-0.477-1.69-0.477h-7.852c-0.937,0-1.714,0.213-1.735,0.477l-0.184,2.24
											C261.208,312.422,261.964,312.643,262.919,312.643z M246.436,312.643h8.002c0.955,0,1.753-0.221,1.784-0.492l0.25-2.24
											c0.029-0.264-0.707-0.477-1.644-0.477h-7.852c-0.937,0-1.734,0.213-1.781,0.477l-0.399,2.24
											C244.746,312.422,245.481,312.643,246.436,312.643z M229.953,312.643h8.002c0.955,0,1.775-0.221,1.831-0.492l0.466-2.24
											c0.055-0.264-0.661-0.477-1.598-0.477h-7.852c-0.937,0-1.755,0.213-1.828,0.477l-0.616,2.24
											C228.284,312.422,228.998,312.643,229.953,312.643z M213.469,312.643h8.002c0.955,0,1.796-0.221,1.878-0.492l0.682-2.24
											c0.08-0.264-0.615-0.477-1.552-0.477h-7.852c-0.937,0-1.775,0.213-1.874,0.477l-0.832,2.24
											C211.822,312.422,212.514,312.643,213.469,312.643z M196.985,312.643h8.002c0.955,0,1.817-0.221,1.926-0.492l0.898-2.24
											c0.105-0.264-0.569-0.477-1.505-0.477h-7.852c-0.937,0-1.796,0.213-1.919,0.477l-1.048,2.24
											C195.36,312.422,196.031,312.643,196.985,312.643z M160.257,312.643h28.248c0.955,0,1.838-0.221,1.974-0.492l1.114-2.24
											c0.131-0.264-0.522-0.477-1.459-0.477h-27.716c-0.937,0-1.842,0.213-2.022,0.477l-1.53,2.24
											C158.679,312.422,159.302,312.643,160.257,312.643z M361.82,312.643h28.247c0.955,0,1.577-0.221,1.393-0.492l-1.53-2.24
											c-0.18-0.264-1.085-0.477-2.021-0.477h-27.716c-0.938,0-1.592,0.213-1.46,0.477l1.114,2.24
											C359.981,312.422,360.865,312.643,361.82,312.643z M350.978,316.971h8.593c0.979,0,1.657-0.231,1.518-0.518l-0.333-0.676
											c-0.139-0.282-1.037-0.51-2.006-0.51h-8.508c-0.969,0-1.659,0.228-1.54,0.51l0.286,0.676
											C349.106,316.738,349.999,316.971,350.978,316.971z M367.683,316.971h8.593c0.979,0,1.637-0.231,1.469-0.518l-1.384-2.355
											c-0.162-0.275-1.072-0.5-2.033-0.5h-8.426c-0.96,0-1.623,0.225-1.479,0.5l1.22,2.355
											C365.79,316.738,366.704,316.971,367.683,316.971z M384.388,316.971h8.593c0.979,0,1.613-0.231,1.419-0.518l-0.461-0.676
											c-0.192-0.282-1.136-0.51-2.104-0.51h-8.508c-0.97,0-1.615,0.228-1.442,0.51l0.414,0.676
											C382.473,316.738,383.408,316.971,384.388,316.971z M334.071,316.971h8.205c0.979,0,1.681-0.231,1.568-0.518l-0.927-2.355
											c-0.109-0.275-0.975-0.5-1.936-0.5h-8.048c-0.96,0-1.666,0.225-1.574,0.5l0.769,2.355
											C332.222,316.738,333.092,316.971,334.071,316.971z M227.824,314.098l-0.647,2.355c-0.079,0.285,0.652,0.518,1.631,0.518
											h75.81c0.979,0,1.73-0.231,1.68-0.518l-0.42-2.355c-0.049-0.275-0.868-0.5-1.828-0.5H229.7
											C228.739,313.598,227.899,313.82,227.824,314.098z M208.049,316.971h12.062c0.979,0,1.844-0.231,1.931-0.518l0.716-2.355
											c0.084-0.275-0.626-0.5-1.586-0.5h-11.83c-0.96,0-1.827,0.225-1.936,0.5l-0.926,2.355
											C206.367,316.738,207.07,316.971,208.049,316.971z M191.147,316.971h8.205c0.979,0,1.871-0.231,1.992-0.518l0.996-2.355
											c0.117-0.275-0.567-0.5-1.527-0.5h-8.047c-0.96,0-1.848,0.225-1.984,0.5l-1.153,2.355
											C189.488,316.738,190.168,316.971,191.147,316.971z M313.313,316.971h12.063c0.979,0,1.704-0.231,1.619-0.518
											l-0.699-2.355c-0.083-0.275-0.927-0.5-1.887-0.5h-11.83c-0.96,0-1.692,0.225-1.635,0.5l0.488,2.355
											C311.492,316.738,312.333,316.971,313.313,316.971z M174.247,316.971h8.205c0.979,0,1.894-0.231,2.042-0.518l1.223-2.355
											c0.144-0.275-0.519-0.5-1.479-0.5h-8.047c-0.96,0-1.87,0.225-2.032,0.5l-1.381,2.355
											C172.61,316.738,173.268,316.971,174.247,316.971z M157.345,316.971h8.205c0.979,0,1.916-0.231,2.091-0.518l1.45-2.355
											c0.17-0.275-0.47-0.5-1.431-0.5h-8.047c-0.96,0-1.891,0.225-2.08,0.5l-1.608,2.355
											C155.731,316.738,156.366,316.971,157.345,316.971z"/>
									</g>
									
										<radialGradient id="SVGID_42_" cx="275.1621" cy="-190.1587" r="58.5763" gradientTransform="matrix(1 0 0 -0.3238 0 269.1205)" gradientUnits="userSpaceOnUse">
										<stop  offset="0" style="stop-color:#E3E3E2"/>
										<stop  offset="0.4098" style="stop-color:#E0E0E0"/>
										<stop  offset="0.6854" style="stop-color:#D7D7D7"/>
										<stop  offset="0.9209" style="stop-color:#C8C8C8"/>
										<stop  offset="1" style="stop-color:#C1C1C1"/>
									</radialGradient>
									<path fill="url(#SVGID_42_)" d="M318.96,340.175h-87.596c-1.642,0-2.551-0.889-2.042-1.962l7.427-15.672
										c0.35-0.739,1.705-1.328,3.031-1.328h70.765c1.326,0,2.681,0.589,3.031,1.328l7.427,15.672
										C321.512,339.286,320.602,340.175,318.96,340.175z"/>
									
										<radialGradient id="SVGID_43_" cx="274.8667" cy="-426.1235" r="23.5285" gradientTransform="matrix(1 0 0 -0.2187 0 253.4829)" gradientUnits="userSpaceOnUse">
										<stop  offset="0" style="stop-color:#E3E3E2"/>
										<stop  offset="0.3174" style="stop-color:#E0E0E0"/>
										<stop  offset="0.5308" style="stop-color:#D7D7D7"/>
										<stop  offset="0.7137" style="stop-color:#C8C8C8"/>
										<stop  offset="0.8784" style="stop-color:#B3B3B2"/>
										<stop  offset="1" style="stop-color:#9E9E9D"/>
									</radialGradient>
									<path fill="url(#SVGID_43_)" d="M292.603,343.986l-0.258-0.401c-0.338-0.526-1.037-0.842-1.883-0.842h-30.6
										c-0.846,0-1.545,0.313-1.883,0.842l-0.258,0.401h0.064l0.022,1.399c0.014,0.902,0.937,1.634,2.061,1.634h30.587
										c1.124,0,2.046-0.73,2.061-1.634l0.022-1.399H292.603z"/>
									<polygon points="336.651,292.824 213.673,292.824 214.566,291.415 335.758,291.415 									"/>
								</g>
							</g>
						</g>
					</g>
				</g>
			</g>
			<g>
				<g>
					<text transform="matrix(1 0 0 1 593.6553 88.5898)" fill="#3B74C4" font-family="'ArialMT'" font-size="12.5968">your</text>
					<text transform="matrix(1 0 0 1 617.5635 88.5898)" fill="#3B74C4" font-family="'ArialMT'" font-size="12.5968">logo</text>
					<g>
						<text transform="matrix(1 0 0 1 254.2686 86.4434)" fill="#3B74C4" font-family="'ArialMT'" font-size="9.0427">home</text>
						
							<text transform="matrix(1 0 0 1 319.582 86.4434)" opacity="0.7" fill="#3B74C4" enable-background="new    " font-family="'ArialMT'" font-size="9.0427">product</text>
						
							<text transform="matrix(1 0 0 1 388.1348 86.4434)" opacity="0.7" fill="#3B74C4" enable-background="new    " font-family="'ArialMT'" font-size="9.0427">about</text>
						
							<text transform="matrix(1 0 0 1 445.8086 86.4434)" opacity="0.7" fill="#3B74C4" enable-background="new    " font-family="'ArialMT'" font-size="9.0427">contact</text>
						<path fill="#FFFFFF" d="M108.918,80.11h-9.75v-1.25h9.75V80.11z M108.918,82.026h-9.75v1.25h9.75V82.026z M108.918,85.193
							h-9.75v1.25h9.75V85.193z"/>
					</g>
				</g>
				<g>
					<g>
						<rect x="539.098" y="400.454" fill="none" width="111.734" height="25.056"/>
						<text transform="matrix(1 0 0 1 541.8633 404.0039)" fill="#3B74C4" font-family="'ArialMT'" font-size="5">Lorem ipsum dolor sit amet, consectetuer adipiscing </text>
						<text transform="matrix(1 0 0 1 545.1133 410.0039)" fill="#3B74C4" font-family="'ArialMT'" font-size="5">elit, sed diam nonummy nibh euismod tincidunt ut </text>
						<text transform="matrix(1 0 0 1 558.9082 416.0039)" fill="#3B74C4" font-family="'ArialMT'" font-size="5">laoreet dolore magna aliquam erat volutpat.</text>
					</g>
					<g>
						<circle fill="#3B74C4" cx="649.407" cy="393.246" r="1.313"/>
						<circle fill="#3B74C4" cx="641.435" cy="393.246" r="1.313"/>
						<circle fill="#3B74C4" cx="633.463" cy="393.246" r="1.313"/>
					</g>
				</g>
				<g>
					<g>
						<path fill="#3B74C4" d="M224.106,421.643l0.194-1.507h-1.492v-0.962c0-0.437,0.121-0.733,0.747-0.733h0.798v-1.349
							c-0.138-0.019-0.612-0.06-1.163-0.06c-1.151,0-1.938,0.702-1.938,1.992v1.11h-1.301v1.507h1.301v3.867h1.557v-3.867
							L224.106,421.643L224.106,421.643z"/>
						<g id="Icons_18_">
							<g id="Color-_18_" transform="translate(-300.000000, -164.000000)">
								<path id="Twitter_9_" fill="#3B74C4" d="M544.729,582.666c-0.301,0.137-0.625,0.229-0.965,0.271
									c0.347-0.215,0.614-0.552,0.739-0.953c-0.325,0.196-0.685,0.34-1.068,0.417c-0.306-0.335-0.743-0.544-1.227-0.544
									c-0.927,0-1.68,0.771-1.68,1.724c0,0.135,0.014,0.267,0.043,0.393c-1.396-0.071-2.635-0.758-3.464-1.802
									c-0.145,0.256-0.227,0.552-0.227,0.868c0,0.597,0.296,1.125,0.748,1.434c-0.275-0.008-0.535-0.087-0.762-0.215v0.021
									c0,0.835,0.58,1.531,1.349,1.688c-0.141,0.041-0.29,0.062-0.443,0.062c-0.108,0-0.214-0.011-0.316-0.03
									c0.214,0.685,0.834,1.183,1.57,1.196c-0.575,0.462-1.3,0.737-2.087,0.737c-0.136,0-0.27-0.008-0.401-0.023
									c0.744,0.487,1.627,0.773,2.576,0.773c3.091,0,4.782-2.626,4.782-4.902c0-0.075-0.001-0.15-0.004-0.225
									C544.22,583.314,544.505,583.012,544.729,582.666"/>
							</g>
						</g>
						<g id="Icons_17_">
							<g id="Color-_17_" transform="translate(-200.000000, -368.000000)">
								<path id="Youtube_9_" fill="#3B74C4" d="M456.41,790.371v-2.384l2.276,1.195L456.41,790.371z M461.408,787.574
									c0,0-0.083-0.584-0.335-0.842c-0.32-0.339-0.679-0.341-0.844-0.359c-1.179-0.086-2.947-0.086-2.947-0.086h-0.004
									c0,0-1.768,0-2.947,0.086c-0.165,0.02-0.524,0.021-0.844,0.359c-0.253,0.258-0.335,0.842-0.335,0.842
									s-0.084,0.688-0.084,1.373v0.645c0,0.688,0.084,1.373,0.084,1.373s0.082,0.584,0.335,0.842
									c0.32,0.338,0.741,0.327,0.929,0.362c0.674,0.065,2.864,0.086,2.864,0.086s1.77-0.003,2.949-0.089
									c0.165-0.021,0.523-0.021,0.844-0.359c0.252-0.258,0.335-0.842,0.335-0.842s0.084-0.687,0.084-1.373v-0.645
									C461.492,788.262,461.408,787.574,461.408,787.574L461.408,787.574z"/>
							</g>
						</g>
						<path fill="#3B74C4" d="M205.703,419.168c-1.162,0-2.104,0.941-2.104,2.104c0,1.16,0.942,2.103,2.104,2.103
							s2.103-0.941,2.103-2.103C207.806,420.109,206.864,419.168,205.703,419.168z M205.703,422.637
							c-0.754,0-1.365-0.61-1.365-1.364c0-0.756,0.611-1.366,1.365-1.366s1.365,0.61,1.365,1.366
							C207.068,422.025,206.457,422.637,205.703,422.637z M209.774,419.582c-0.02-0.436-0.089-0.733-0.19-0.994
							c-0.105-0.27-0.245-0.498-0.473-0.726c-0.228-0.229-0.456-0.367-0.726-0.473c-0.26-0.102-0.558-0.171-0.994-0.189
							c-0.437-0.021-0.576-0.025-1.688-0.025c-1.113,0-1.252,0.005-1.689,0.025c-0.436,0.02-0.734,0.089-0.994,0.189
							c-0.27,0.104-0.498,0.244-0.726,0.473c-0.228,0.228-0.368,0.456-0.472,0.726c-0.102,0.261-0.171,0.56-0.19,0.994
							c-0.02,0.438-0.025,0.576-0.025,1.689c0,1.111,0.005,1.251,0.025,1.688c0.02,0.436,0.089,0.733,0.19,0.994
							c0.104,0.27,0.245,0.497,0.472,0.726c0.228,0.229,0.456,0.367,0.726,0.474c0.26,0.101,0.558,0.17,0.994,0.188
							c0.437,0.021,0.576,0.025,1.689,0.025c1.112,0,1.251-0.005,1.688-0.025c0.436-0.02,0.734-0.089,0.994-0.188
							c0.27-0.105,0.498-0.245,0.726-0.474s0.368-0.456,0.473-0.726c0.101-0.261,0.17-0.56,0.19-0.994
							c0.02-0.438,0.024-0.576,0.024-1.688C209.798,420.158,209.793,420.02,209.774,419.582z M209.037,422.926
							c-0.019,0.399-0.085,0.616-0.141,0.761c-0.074,0.191-0.163,0.328-0.307,0.472c-0.143,0.144-0.28,0.231-0.471,0.307
							c-0.145,0.058-0.361,0.123-0.761,0.143c-0.432,0.02-0.561,0.022-1.655,0.022c-1.094,0-1.224-0.004-1.655-0.022
							c-0.399-0.02-0.616-0.085-0.761-0.143c-0.191-0.074-0.328-0.163-0.471-0.307c-0.144-0.144-0.232-0.279-0.307-0.472
							c-0.056-0.145-0.123-0.36-0.141-0.761c-0.02-0.432-0.024-0.562-0.024-1.653c0-1.095,0.004-1.225,0.024-1.655
							c0.018-0.399,0.085-0.616,0.141-0.761c0.075-0.191,0.163-0.328,0.307-0.472c0.143-0.144,0.28-0.231,0.471-0.307
							c0.145-0.056,0.361-0.123,0.761-0.141c0.432-0.021,0.562-0.024,1.655-0.024c1.093,0,1.223,0.004,1.655,0.024
							c0.399,0.018,0.616,0.085,0.761,0.141c0.191,0.074,0.328,0.163,0.471,0.307c0.144,0.144,0.232,0.279,0.307,0.472
							c0.056,0.145,0.123,0.36,0.141,0.761c0.02,0.432,0.024,0.562,0.024,1.655C209.061,422.364,209.056,422.494,209.037,422.926z
							 M208.38,419.085c0,0.271-0.22,0.491-0.492,0.491s-0.491-0.22-0.491-0.491c0-0.271,0.22-0.492,0.491-0.492
							S208.38,418.813,208.38,419.085z"/>
					</g>
				</g>
				<g>
					<g>
						<g>
							<text transform="matrix(1 0 0 1 448.6865 240.3838)" fill="#3B74C4" font-family="'ArialMT'" font-size="32.6628">shopping</text>
						</g>
						<g>
							<text transform="matrix(1 0 0 1 470.7725 262.7598)" fill="#3B74C4" font-family="'ArialMT'" font-size="13.9913">landing page</text>
						</g>
						<g>
							<text transform="matrix(1 0 0 1 445.6533 210.1699)" fill="#3B74C4" font-family="'ArialMT'" font-size="50.4476">online</text>
						</g>
					</g>
					<g>
						<rect x="456.633" y="279.111" fill="none" width="152.558" height="23.525"/>
						<text transform="matrix(1 0 0 1 461.5303 283.1367)" fill="#3B74C4" font-family="'ArialMT'" font-size="5.668">Lorem ipsum dolor sit amet, consectetuer adipiscing elit, sed </text>
						<text transform="matrix(1 0 0 1 465.3867 289.9385)" fill="#3B74C4" font-family="'ArialMT'" font-size="5.668">diam nonummy nibh euismod tincidunt ut laoreet dolore </text>
						<text transform="matrix(1 0 0 1 498.0313 296.7393)" fill="#3B74C4" font-family="'ArialMT'" font-size="5.668">magna aliquam erat volutpat.</text>
					</g>
					<g>
						
							<linearGradient id="SVGID_44_" gradientUnits="userSpaceOnUse" x1="529.4316" y1="168.0991" x2="535.6135" y2="191.1259" gradientTransform="matrix(1 0 0 -1 0 501)">
							<stop  offset="0" style="stop-color:#1A6BE4"/>
							<stop  offset="0.1619" style="stop-color:#1E77E9"/>
							<stop  offset="1" style="stop-color:#34B5FF"/>
						</linearGradient>
						<path fill="url(#SVGID_44_)" d="M561.251,326.238h-56.679c-3.479,0-6.299-2.82-6.299-6.299l0,0
							c0-3.479,2.818-6.299,6.299-6.299h56.679c3.479,0,6.299,2.819,6.299,6.299l0,0
							C567.55,323.418,564.729,326.238,561.251,326.238z"/>
						<g>
							<text transform="matrix(1 0 0 1 514.5869 322.2109)" fill="#FFFFFF" font-family="'ArialMT'" font-size="6.3117">learn more</text>
						</g>
					</g>
				</g>
			</g>
		</g>
	</g>
</g>
<text transform="matrix(0.8415 0 0 1 66.5 482.3828)" fill="#FFFFFF" font-family="'TimesNewRomanPSMT'" font-size="33.2738">I Build Responsive And Eligant E-Commerce Websites</text>
</svg>
